<svg width="36" height="44" viewBox="0 0 36 44" fill="none" xmlns="http://www.w3.org/2000/svg">
<path d="M22 2.53906V10.8001C22 11.9202 22 12.4803 22.218 12.9081C22.4097 13.2844 22.7157 13.5904 23.092 13.7822C23.5198 14.0001 24.0799 14.0001 25.2 14.0001H33.4611M22 32H10M26 24H10M34 17.9764V32.4C34 35.7603 34 37.4405 33.346 38.7239C32.7708 39.8529 31.8529 40.7708 30.7239 41.346C29.4405 42 27.7603 42 24.4 42H11.6C8.23969 42 6.55953 42 5.27606 41.346C4.14708 40.7708 3.2292 39.8529 2.65396 38.7239C2 37.4405 2 35.7603 2 32.4L2 11.6C2 8.23969 2 6.55953 2.65396 5.27606C3.2292 4.14708 4.14708 3.2292 5.27606 2.65396C6.55953 2 8.23969 2 11.6 2L18.0236 2C19.4911 2 20.2249 2 20.9154 2.16578C21.5276 2.31276 22.1129 2.55519 22.6497 2.88416C23.2552 3.25521 23.7741 3.77406 24.8118 4.81177L31.1882 11.1882C32.2259 12.2259 32.7448 12.7448 33.1158 13.3503C33.4448 13.8871 33.6872 14.4724 33.8342 15.0846C34 15.7751 34 16.5089 34 17.9764Z" stroke="#697486" strokeWidth="3" stroke-linecap="round" strokeLinejoin="round"/>
</svg>
