<svg width="24" height="24" viewBox="0 0 24 24" fill="none" xmlns="http://www.w3.org/2000/svg">
<path d="M9.97968 17.984H14.0204V22.0247H9.97968V17.984Z" fill="black"/>
<path fillRule="evenodd" clipRule="evenodd" d="M12 5.45789C10.0686 5.45789 8.76746 7.21316 8.76746 8.69043H5.53491C5.53491 5.77791 7.95286 2.22534 12 2.22534C16.0342 2.22534 18.4651 5.6874 18.4651 8.69043C18.4651 11.2409 16.6743 12.5339 15.5655 13.334L15.378 13.4697C14.1577 14.3619 13.6163 14.8694 13.6163 15.9637H10.3837C10.3837 13.1158 12.2602 11.7452 13.466 10.8643L13.4708 10.8611C14.8155 9.87677 15.2325 9.50341 15.2325 8.69043C15.2325 7.15497 13.946 5.45789 12 5.45789Z" fill="black"/>
</svg>
