<svg width="25" height="12" viewBox="0 0 25 12" fill="none" xmlns="http://www.w3.org/2000/svg">
<path d="M1 6.49975H23.0317L17.9317 10.5998C17.7317 10.7998 17.7317 11.0998 17.9317 11.2998C18.0317 11.4998 18.4317 11.5998 18.6317 11.3998L24.3317 6.79975C24.5317 6.59975 24.6317 6.39975 24.7317 6.19975C24.7317 5.89975 24.7317 5.69975 24.5317 5.49975C24.4317 5.39975 24.4317 5.29975 24.3317 5.29975L18.5317 0.599756C18.5317 0.499756 18.4317 0.499756 18.3317 0.499756C18.2317 0.499756 18.0317 0.599755 17.9317 0.699755C17.7317 0.899755 17.7317 1.19976 17.9317 1.39976L23.0317 5.49975H1C0.700001 5.49975 0.5 5.69975 0.5 5.99975C0.5 6.29975 0.700001 6.49975 1 6.49975Z" fill="black"/>
</svg>
